<svg xmlns="http://www.w3.org/2000/svg" width="76" height="73" fill="none" viewBox="0 0 76 73"><path fill="#000" fill-rule="evenodd" d="M37.56 0 0 37.56l2.12 2.12 7.44-7.44v37.38h-4v3h65v-3h-5V32.24L73 39.68l2.12-2.12L65.56 28V.62h-14V14zm17 17 8 8V3.62h-8zm8 12.24-25-25-25 25v40.38h50zm-33 12.38v24h16v-24zm3 21v-18h10v18zm-16-21h3v4h-3zm9 0h-3v4h3zm-9 6h3v4h-3zm9 0h-3v4h3zm24-6h3v4h-3zm9 0h-3v4h3zm-9 6h3v4h-3zm9 0h-3v4h3zm-26-20a5 5 0 1 1 10 0 5 5 0 0 1-10 0m5-8a8 8 0 1 0 0 16 8 8 0 0 0 0-16" clip-rule="evenodd"/></svg>