<svg xmlns="http://www.w3.org/2000/svg" width="64" height="76" fill="none" viewBox="0 0 64 76"><path fill="#000" d="M61.1 22.45H36.3c13.8-6.9 14.9-11.3 14.4-13.7-1.2-4-5.7-7-10-5.4-5.6 2.1-7.1 10.4-8.6 16.4-2-6.1-3.8-13.8-8.2-17.7-1.3-1.1-3.1-2.3-5.8-2-4 .4-9.8 5.4-7.5 11 2.3 5.4 9.7 8.8 14.6 11.5H2.9a2.9 2.9 0 0 0-2.9 2.9v11.3c0 1.6 1.3 2.9 2.9 2.9h.3v36.3H61v-36.4h.1c1.6 0 2.9-1.3 2.9-2.9v-11.3c0-1.6-1.3-2.9-2.9-2.9M42.4 5.85c2.1-.3 5 1.3 5.3 3.2.4 2.8-3.4 5.3-5.1 6.4-2.5 1.7-4.9 2.6-7.3 4.1.9-3.7 2.5-13 7.1-13.7m-22.9 10c-2.2-1.5-6.5-4.4-6.4-7.8.1-3.6 5.7-6.6 8.8-3.9 3.9 3.4 5.7 11.1 7.1 16.6-3.2-1.5-6.3-2.8-9.5-4.9m6 57.1H6.1v-33.4h19.4zm0-36.5H3v-11h22.5zm10.2 0v36.5h-7.2v-47.4h7.2zM58 72.95H38.6v-33.4H58zm2.9-36.5H38.6v-11h22.3z"/></svg>